<mxfile host="app.diagrams.net" modified="2024-06-18T23:28:01.284Z" agent="Mozilla/5.0 (Windows NT 10.0; Win64; x64) AppleWebKit/537.36 (KHTML, like Gecko) Chrome/125.0.0.0 Safari/537.36" etag="pA2wU9ylRFBHx4Lg7mzH" version="24.4.14" type="device">
  <diagram name="Page-1" id="pxs2LCOW7lolGWCgPPHY">
    <mxGraphModel dx="1110" dy="1688" grid="0" gridSize="10" guides="1" tooltips="1" connect="1" arrows="1" fold="1" page="1" pageScale="1" pageWidth="850" pageHeight="1100" math="0" shadow="0">
      <root>
        <mxCell id="0" />
        <mxCell id="1" parent="0" />
        <mxCell id="tLd2U_qie7qlN50Nm7pm-3" style="edgeStyle=orthogonalEdgeStyle;rounded=0;orthogonalLoop=1;jettySize=auto;html=1;exitX=0.25;exitY=1;exitDx=0;exitDy=0;entryX=0.5;entryY=1;entryDx=0;entryDy=0;endArrow=none;endFill=0;" parent="1" source="idVs67ghkI3oXP9Q0ESu-2" target="idVs67ghkI3oXP9Q0ESu-9" edge="1">
          <mxGeometry relative="1" as="geometry">
            <Array as="points">
              <mxPoint x="653" y="540" />
              <mxPoint x="120" y="540" />
            </Array>
          </mxGeometry>
        </mxCell>
        <mxCell id="idVs67ghkI3oXP9Q0ESu-2" value="&lt;p style=&quot;text-align: center; margin: 4px 0px 0px;&quot;&gt;&lt;b&gt;Entertainment&lt;/b&gt;&lt;/p&gt;&lt;hr style=&quot;text-align: center;&quot; size=&quot;1&quot;&gt;&lt;p style=&quot;text-align: justify; margin: 0px 0px 0px 4px;&quot;&gt;- Na&lt;span style=&quot;background-color: initial;&quot;&gt;me : String&lt;/span&gt;&lt;/p&gt;&lt;p style=&quot;text-align: justify; margin: 0px 0px 0px 4px;&quot;&gt;&lt;span style=&quot;background-color: initial;&quot;&gt;- Description : String&lt;/span&gt;&lt;/p&gt;&lt;p style=&quot;text-align: justify; margin: 0px 0px 0px 4px;&quot;&gt;- Released : Int&lt;/p&gt;&lt;p style=&quot;text-align: justify; margin: 0px 0px 0px 4px;&quot;&gt;- Type : String&lt;/p&gt;&lt;p style=&quot;text-align: justify; margin: 0px 0px 0px 4px;&quot;&gt;- Category : String&lt;/p&gt;&lt;hr style=&quot;text-align: justify;&quot; size=&quot;1&quot;&gt;&lt;p style=&quot;text-align: justify; margin: 0px 0px 0px 4px;&quot;&gt;+ createEntertainment() : Void&lt;/p&gt;&lt;p style=&quot;border-color: var(--border-color); text-align: justify; margin: 0px 0px 0px 4px;&quot;&gt;+ updateEntertainment() : Void&lt;/p&gt;&lt;p style=&quot;text-align: justify; margin: 0px 0px 0px 4px;&quot;&gt;+ deleteEntertainment() : Void&lt;/p&gt;&lt;p style=&quot;text-align: justify; margin: 0px 0px 0px 4px;&quot;&gt;&lt;span style=&quot;background-color: initial;&quot;&gt;+ getEntertainment() : Entertainment&lt;/span&gt;&lt;br&gt;&lt;/p&gt;" style="verticalAlign=top;align=left;overflow=fill;fontSize=12;fontFamily=Helvetica;html=1;whiteSpace=wrap;" parent="1" vertex="1">
          <mxGeometry x="600" y="290" width="210" height="200" as="geometry" />
        </mxCell>
        <mxCell id="idVs67ghkI3oXP9Q0ESu-19" style="edgeStyle=orthogonalEdgeStyle;rounded=0;orthogonalLoop=1;jettySize=auto;html=1;entryX=0.5;entryY=0;entryDx=0;entryDy=0;endArrow=none;endFill=0;" parent="1" source="idVs67ghkI3oXP9Q0ESu-8" target="idVs67ghkI3oXP9Q0ESu-11" edge="1">
          <mxGeometry relative="1" as="geometry">
            <mxPoint x="260" y="140" as="targetPoint" />
          </mxGeometry>
        </mxCell>
        <mxCell id="idVs67ghkI3oXP9Q0ESu-21" style="edgeStyle=orthogonalEdgeStyle;rounded=0;orthogonalLoop=1;jettySize=auto;html=1;entryX=0;entryY=0.5;entryDx=0;entryDy=0;exitX=1.006;exitY=0.303;exitDx=0;exitDy=0;exitPerimeter=0;endArrow=none;endFill=0;" parent="1" source="idVs67ghkI3oXP9Q0ESu-8" target="idVs67ghkI3oXP9Q0ESu-10" edge="1">
          <mxGeometry relative="1" as="geometry">
            <Array as="points">
              <mxPoint x="413" y="101" />
              <mxPoint x="625" y="100" />
            </Array>
          </mxGeometry>
        </mxCell>
        <mxCell id="Okd_vAXwTdoC8tYLkcTv-5" style="edgeStyle=orthogonalEdgeStyle;rounded=0;orthogonalLoop=1;jettySize=auto;html=1;entryX=0;entryY=0.5;entryDx=0;entryDy=0;endArrow=none;endFill=0;" parent="1" source="idVs67ghkI3oXP9Q0ESu-8" target="Okd_vAXwTdoC8tYLkcTv-4" edge="1">
          <mxGeometry relative="1" as="geometry">
            <Array as="points">
              <mxPoint x="156" y="-96" />
            </Array>
          </mxGeometry>
        </mxCell>
        <mxCell id="idVs67ghkI3oXP9Q0ESu-8" value="&lt;p style=&quot;margin:0px;margin-top:4px;text-align:center;&quot;&gt;&lt;b&gt;User&lt;/b&gt;&lt;/p&gt;&lt;hr size=&quot;1&quot;&gt;&lt;p style=&quot;margin:0px;margin-left:4px;&quot;&gt;- Username : String&lt;/p&gt;&lt;p style=&quot;margin:0px;margin-left:4px;&quot;&gt;- Email : String&lt;/p&gt;&lt;p style=&quot;margin:0px;margin-left:4px;&quot;&gt;- Phone : String&lt;/p&gt;&lt;p style=&quot;margin:0px;margin-left:4px;&quot;&gt;- Type : String&lt;/p&gt;&lt;hr size=&quot;1&quot;&gt;&lt;p style=&quot;margin:0px;margin-left:4px;&quot;&gt;&lt;span style=&quot;background-color: initial;&quot;&gt;+ createUser() : Void&lt;/span&gt;&lt;br&gt;&lt;/p&gt;&lt;p style=&quot;margin:0px;margin-left:4px;&quot;&gt;+ updateUser() : Void&lt;/p&gt;&lt;p style=&quot;margin:0px;margin-left:4px;&quot;&gt;+ deleteUser(): Void&lt;br&gt;&lt;/p&gt;&lt;p style=&quot;border-color: var(--border-color); margin: 0px 0px 0px 4px;&quot;&gt;+ getUser() : User&lt;/p&gt;" style="verticalAlign=top;align=left;overflow=fill;fontSize=12;fontFamily=Helvetica;html=1;whiteSpace=wrap;" parent="1" vertex="1">
          <mxGeometry x="40" y="40" width="160" height="200" as="geometry" />
        </mxCell>
        <mxCell id="idVs67ghkI3oXP9Q0ESu-16" style="edgeStyle=orthogonalEdgeStyle;rounded=0;orthogonalLoop=1;jettySize=auto;html=1;entryX=0.5;entryY=1;entryDx=0;entryDy=0;endArrow=none;endFill=0;" parent="1" source="idVs67ghkI3oXP9Q0ESu-9" target="idVs67ghkI3oXP9Q0ESu-8" edge="1">
          <mxGeometry relative="1" as="geometry" />
        </mxCell>
        <mxCell id="idVs67ghkI3oXP9Q0ESu-9" value="&lt;p style=&quot;margin:0px;margin-top:4px;text-align:center;&quot;&gt;&lt;b&gt;Rating&lt;/b&gt;&lt;/p&gt;&lt;hr size=&quot;1&quot;&gt;&lt;p style=&quot;margin:0px;margin-left:4px;&quot;&gt;- Rating : Decimal(2, 1)&lt;/p&gt;&lt;p style=&quot;margin:0px;margin-left:4px;&quot;&gt;- Date : Datetime&lt;/p&gt;&lt;hr size=&quot;1&quot;&gt;&lt;p style=&quot;margin:0px;margin-left:4px;&quot;&gt;+ createRating() : Void&lt;/p&gt;&lt;p style=&quot;margin:0px;margin-left:4px;&quot;&gt;+ updateRating(): Void&lt;/p&gt;&lt;p style=&quot;margin:0px;margin-left:4px;&quot;&gt;+ deleteRating() : Void&lt;/p&gt;&lt;p style=&quot;margin:0px;margin-left:4px;&quot;&gt;+ getRating(): Rating&lt;/p&gt;" style="verticalAlign=top;align=left;overflow=fill;fontSize=12;fontFamily=Helvetica;html=1;whiteSpace=wrap;" parent="1" vertex="1">
          <mxGeometry x="40" y="338" width="160" height="140" as="geometry" />
        </mxCell>
        <mxCell id="idVs67ghkI3oXP9Q0ESu-10" value="&lt;p style=&quot;margin:0px;margin-top:4px;text-align:center;&quot;&gt;&lt;b&gt;Wishlist&lt;/b&gt;&lt;/p&gt;&lt;hr size=&quot;1&quot;&gt;&lt;p style=&quot;margin:0px;margin-left:4px;&quot;&gt;&lt;br&gt;&lt;/p&gt;&lt;hr size=&quot;1&quot;&gt;&lt;p style=&quot;margin:0px;margin-left:4px;&quot;&gt;&lt;br&gt;&lt;/p&gt;" style="verticalAlign=top;align=left;overflow=fill;fontSize=12;fontFamily=Helvetica;html=1;whiteSpace=wrap;" parent="1" vertex="1">
          <mxGeometry x="600" y="50" width="160" height="90" as="geometry" />
        </mxCell>
        <mxCell id="idVs67ghkI3oXP9Q0ESu-11" value="&lt;p style=&quot;margin:0px;margin-top:4px;text-align:center;&quot;&gt;&lt;b&gt;Comments&lt;/b&gt;&lt;/p&gt;&lt;hr size=&quot;1&quot;&gt;&lt;p style=&quot;margin:0px;margin-left:4px;&quot;&gt;- Comment : String&lt;/p&gt;&lt;p style=&quot;margin:0px;margin-left:4px;&quot;&gt;- Date : Datetime&lt;/p&gt;&lt;hr size=&quot;1&quot;&gt;&lt;p style=&quot;margin:0px;margin-left:4px;&quot;&gt;+ createComment() : Void&lt;/p&gt;&lt;p style=&quot;margin:0px;margin-left:4px;&quot;&gt;+ updateComment() : Void&lt;/p&gt;&lt;p style=&quot;margin:0px;margin-left:4px;&quot;&gt;+ deleteComment()&amp;nbsp; : Void&lt;/p&gt;&lt;p style=&quot;margin:0px;margin-left:4px;&quot;&gt;+ getComment() : Comments&lt;/p&gt;" style="verticalAlign=top;align=left;overflow=fill;fontSize=12;fontFamily=Helvetica;html=1;whiteSpace=wrap;" parent="1" vertex="1">
          <mxGeometry x="280" y="339" width="160" height="140" as="geometry" />
        </mxCell>
        <mxCell id="idVs67ghkI3oXP9Q0ESu-29" style="edgeStyle=orthogonalEdgeStyle;rounded=0;orthogonalLoop=1;jettySize=auto;html=1;entryX=0.5;entryY=1;entryDx=0;entryDy=0;endArrow=block;endFill=0;" parent="1" source="idVs67ghkI3oXP9Q0ESu-22" target="idVs67ghkI3oXP9Q0ESu-2" edge="1">
          <mxGeometry relative="1" as="geometry">
            <Array as="points">
              <mxPoint x="840" y="580" />
              <mxPoint x="705" y="580" />
            </Array>
          </mxGeometry>
        </mxCell>
        <mxCell id="idVs67ghkI3oXP9Q0ESu-22" value="&lt;p style=&quot;margin:0px;margin-top:4px;text-align:center;&quot;&gt;&lt;b&gt;Game&lt;/b&gt;&lt;/p&gt;&lt;hr size=&quot;1&quot;&gt;&lt;p style=&quot;margin:0px;margin-left:4px;&quot;&gt;- Difficulty: String&lt;/p&gt;&lt;p style=&quot;margin:0px;margin-left:4px;&quot;&gt;- Duration : String&lt;/p&gt;&lt;hr size=&quot;1&quot;&gt;&lt;p style=&quot;margin:0px;margin-left:4px;&quot;&gt;+ addDificulty() : Void&lt;/p&gt;&lt;p style=&quot;margin:0px;margin-left:4px;&quot;&gt;+ addDuration() : Void&lt;/p&gt;" style="verticalAlign=top;align=left;overflow=fill;fontSize=12;fontFamily=Helvetica;html=1;whiteSpace=wrap;" parent="1" vertex="1">
          <mxGeometry x="760" y="670" width="160" height="110" as="geometry" />
        </mxCell>
        <mxCell id="idVs67ghkI3oXP9Q0ESu-28" style="edgeStyle=orthogonalEdgeStyle;rounded=0;orthogonalLoop=1;jettySize=auto;html=1;entryX=0.5;entryY=1;entryDx=0;entryDy=0;endArrow=block;endFill=0;" parent="1" source="idVs67ghkI3oXP9Q0ESu-23" target="idVs67ghkI3oXP9Q0ESu-2" edge="1">
          <mxGeometry relative="1" as="geometry">
            <Array as="points">
              <mxPoint x="1030" y="580" />
              <mxPoint x="705" y="580" />
            </Array>
          </mxGeometry>
        </mxCell>
        <mxCell id="PpSIHmsDYL9PM3E6bVAJ-32" value="" style="edgeStyle=orthogonalEdgeStyle;rounded=0;orthogonalLoop=1;jettySize=auto;html=1;endArrow=none;endFill=0;exitX=0.5;exitY=1;exitDx=0;exitDy=0;" parent="1" source="idVs67ghkI3oXP9Q0ESu-23" target="PpSIHmsDYL9PM3E6bVAJ-31" edge="1">
          <mxGeometry relative="1" as="geometry">
            <mxPoint x="1030" y="809.9999999999998" as="sourcePoint" />
          </mxGeometry>
        </mxCell>
        <mxCell id="PpSIHmsDYL9PM3E6bVAJ-35" style="edgeStyle=orthogonalEdgeStyle;rounded=0;orthogonalLoop=1;jettySize=auto;html=1;exitX=0.25;exitY=1;exitDx=0;exitDy=0;entryX=0.5;entryY=0;entryDx=0;entryDy=0;endArrow=none;endFill=0;" parent="1" source="idVs67ghkI3oXP9Q0ESu-23" target="PpSIHmsDYL9PM3E6bVAJ-13" edge="1">
          <mxGeometry relative="1" as="geometry" />
        </mxCell>
        <mxCell id="idVs67ghkI3oXP9Q0ESu-23" value="&lt;p style=&quot;margin:0px;margin-top:4px;text-align:center;&quot;&gt;&lt;b&gt;Serie&lt;/b&gt;&lt;/p&gt;&lt;hr size=&quot;1&quot;&gt;&lt;p style=&quot;margin:0px;margin-left:4px;&quot;&gt;- NumberEpisodes: Int&lt;/p&gt;&lt;p style=&quot;margin:0px;margin-left:4px;&quot;&gt;- NumberSeasons: Int&lt;/p&gt;&lt;hr size=&quot;1&quot;&gt;&lt;p style=&quot;margin:0px;margin-left:4px;&quot;&gt;+ addEpisodes() : Void&lt;/p&gt;&lt;p style=&quot;margin:0px;margin-left:4px;&quot;&gt;+ AddSeasons() : Void&lt;/p&gt;" style="verticalAlign=top;align=left;overflow=fill;fontSize=12;fontFamily=Helvetica;html=1;whiteSpace=wrap;" parent="1" vertex="1">
          <mxGeometry x="950" y="670" width="160" height="110" as="geometry" />
        </mxCell>
        <mxCell id="idVs67ghkI3oXP9Q0ESu-30" style="edgeStyle=orthogonalEdgeStyle;rounded=0;orthogonalLoop=1;jettySize=auto;html=1;entryX=0.5;entryY=1;entryDx=0;entryDy=0;endArrow=block;endFill=0;" parent="1" source="idVs67ghkI3oXP9Q0ESu-24" target="idVs67ghkI3oXP9Q0ESu-2" edge="1">
          <mxGeometry relative="1" as="geometry">
            <Array as="points">
              <mxPoint x="650" y="580" />
              <mxPoint x="705" y="580" />
            </Array>
          </mxGeometry>
        </mxCell>
        <mxCell id="idVs67ghkI3oXP9Q0ESu-24" value="&lt;p style=&quot;margin:0px;margin-top:4px;text-align:center;&quot;&gt;&lt;b&gt;Movie&lt;/b&gt;&lt;/p&gt;&lt;hr size=&quot;1&quot;&gt;&lt;p style=&quot;margin:0px;margin-left:4px;&quot;&gt;- Duration : String&lt;span style=&quot;background-color: initial;&quot;&gt;&amp;nbsp;&lt;/span&gt;&lt;/p&gt;&lt;hr size=&quot;1&quot;&gt;&lt;p style=&quot;margin:0px;margin-left:4px;&quot;&gt;+ addDuration() : Void&amp;nbsp;&lt;/p&gt;" style="verticalAlign=top;align=left;overflow=fill;fontSize=12;fontFamily=Helvetica;html=1;whiteSpace=wrap;" parent="1" vertex="1">
          <mxGeometry x="570" y="670" width="160" height="90" as="geometry" />
        </mxCell>
        <mxCell id="tLd2U_qie7qlN50Nm7pm-1" style="edgeStyle=orthogonalEdgeStyle;rounded=0;orthogonalLoop=1;jettySize=auto;html=1;endArrow=none;endFill=0;" parent="1" source="idVs67ghkI3oXP9Q0ESu-2" target="idVs67ghkI3oXP9Q0ESu-11" edge="1">
          <mxGeometry relative="1" as="geometry">
            <Array as="points">
              <mxPoint x="560" y="410" />
              <mxPoint x="560" y="410" />
            </Array>
          </mxGeometry>
        </mxCell>
        <mxCell id="tLd2U_qie7qlN50Nm7pm-2" style="edgeStyle=orthogonalEdgeStyle;rounded=0;orthogonalLoop=1;jettySize=auto;html=1;entryX=0.656;entryY=1;entryDx=0;entryDy=0;entryPerimeter=0;endArrow=none;endFill=0;" parent="1" source="idVs67ghkI3oXP9Q0ESu-2" target="idVs67ghkI3oXP9Q0ESu-10" edge="1">
          <mxGeometry relative="1" as="geometry">
            <Array as="points">
              <mxPoint x="700" y="140" />
            </Array>
          </mxGeometry>
        </mxCell>
        <mxCell id="tLd2U_qie7qlN50Nm7pm-5" value="&lt;b&gt;1&lt;/b&gt;" style="text;html=1;align=center;verticalAlign=middle;resizable=0;points=[];autosize=1;strokeColor=none;fillColor=none;" parent="1" vertex="1">
          <mxGeometry x="330" y="308" width="30" height="30" as="geometry" />
        </mxCell>
        <mxCell id="tLd2U_qie7qlN50Nm7pm-6" value="&lt;b&gt;0..*&lt;/b&gt;" style="text;html=1;align=center;verticalAlign=middle;resizable=0;points=[];autosize=1;strokeColor=none;fillColor=none;" parent="1" vertex="1">
          <mxGeometry x="200" y="140" width="40" height="30" as="geometry" />
        </mxCell>
        <mxCell id="tLd2U_qie7qlN50Nm7pm-7" value="&lt;b&gt;0..1&lt;/b&gt;" style="text;html=1;align=center;verticalAlign=middle;resizable=0;points=[];autosize=1;strokeColor=none;fillColor=none;" parent="1" vertex="1">
          <mxGeometry x="200" y="70" width="40" height="30" as="geometry" />
        </mxCell>
        <mxCell id="tLd2U_qie7qlN50Nm7pm-8" value="&lt;b&gt;1&lt;/b&gt;" style="text;html=1;align=center;verticalAlign=middle;resizable=0;points=[];autosize=1;strokeColor=none;fillColor=none;" parent="1" vertex="1">
          <mxGeometry x="570" y="70" width="30" height="30" as="geometry" />
        </mxCell>
        <mxCell id="tLd2U_qie7qlN50Nm7pm-10" value="&lt;b&gt;0..*&lt;/b&gt;" style="text;html=1;align=center;verticalAlign=middle;resizable=0;points=[];autosize=1;strokeColor=none;fillColor=none;" parent="1" vertex="1">
          <mxGeometry x="700" y="260" width="40" height="30" as="geometry" />
        </mxCell>
        <mxCell id="tLd2U_qie7qlN50Nm7pm-11" value="&lt;b&gt;1&lt;/b&gt;" style="text;html=1;align=center;verticalAlign=middle;resizable=0;points=[];autosize=1;strokeColor=none;fillColor=none;" parent="1" vertex="1">
          <mxGeometry x="700" y="140" width="30" height="30" as="geometry" />
        </mxCell>
        <mxCell id="tLd2U_qie7qlN50Nm7pm-12" value="&lt;b&gt;0..*&lt;/b&gt;" style="text;html=1;align=center;verticalAlign=middle;resizable=0;points=[];autosize=1;strokeColor=none;fillColor=none;" parent="1" vertex="1">
          <mxGeometry x="440" y="380" width="40" height="30" as="geometry" />
        </mxCell>
        <mxCell id="tLd2U_qie7qlN50Nm7pm-13" value="&lt;b&gt;0..*&lt;/b&gt;" style="text;html=1;align=center;verticalAlign=middle;resizable=0;points=[];autosize=1;strokeColor=none;fillColor=none;" parent="1" vertex="1">
          <mxGeometry x="560" y="379" width="40" height="30" as="geometry" />
        </mxCell>
        <mxCell id="tLd2U_qie7qlN50Nm7pm-14" value="&lt;b&gt;0..*&lt;/b&gt;" style="text;html=1;align=center;verticalAlign=middle;resizable=0;points=[];autosize=1;strokeColor=none;fillColor=none;" parent="1" vertex="1">
          <mxGeometry x="120" y="479" width="40" height="30" as="geometry" />
        </mxCell>
        <mxCell id="tLd2U_qie7qlN50Nm7pm-15" value="&lt;b&gt;0..*&lt;/b&gt;" style="text;html=1;align=center;verticalAlign=middle;resizable=0;points=[];autosize=1;strokeColor=none;fillColor=none;" parent="1" vertex="1">
          <mxGeometry x="610" y="490" width="40" height="30" as="geometry" />
        </mxCell>
        <mxCell id="tLd2U_qie7qlN50Nm7pm-16" value="&lt;b&gt;0..1&lt;/b&gt;" style="text;html=1;align=center;verticalAlign=middle;resizable=0;points=[];autosize=1;strokeColor=none;fillColor=none;" parent="1" vertex="1">
          <mxGeometry x="120" y="308" width="40" height="30" as="geometry" />
        </mxCell>
        <mxCell id="tLd2U_qie7qlN50Nm7pm-17" value="&lt;b&gt;0..*&lt;/b&gt;" style="text;html=1;align=center;verticalAlign=middle;resizable=0;points=[];autosize=1;strokeColor=none;fillColor=none;" parent="1" vertex="1">
          <mxGeometry x="120" y="240" width="40" height="30" as="geometry" />
        </mxCell>
        <mxCell id="ViD9zL3aq_r157SAdY8s-1" style="edgeStyle=orthogonalEdgeStyle;rounded=0;orthogonalLoop=1;jettySize=auto;html=1;exitX=0;exitY=0.25;exitDx=0;exitDy=0;entryX=0.5;entryY=0;entryDx=0;entryDy=0;endArrow=none;endFill=0;" parent="1" source="idVs67ghkI3oXP9Q0ESu-8" target="idVs67ghkI3oXP9Q0ESu-8" edge="1">
          <mxGeometry relative="1" as="geometry">
            <Array as="points">
              <mxPoint x="20" y="90" />
              <mxPoint x="20" y="20" />
              <mxPoint x="120" y="20" />
            </Array>
          </mxGeometry>
        </mxCell>
        <mxCell id="PpSIHmsDYL9PM3E6bVAJ-2" style="edgeStyle=orthogonalEdgeStyle;rounded=0;orthogonalLoop=1;jettySize=auto;html=1;endArrow=none;endFill=0;" parent="1" source="PpSIHmsDYL9PM3E6bVAJ-1" edge="1">
          <mxGeometry relative="1" as="geometry">
            <mxPoint x="705" y="530" as="targetPoint" />
            <Array as="points">
              <mxPoint x="1230" y="580" />
              <mxPoint x="705" y="580" />
            </Array>
          </mxGeometry>
        </mxCell>
        <mxCell id="PpSIHmsDYL9PM3E6bVAJ-1" value="&lt;p style=&quot;margin:0px;margin-top:4px;text-align:center;&quot;&gt;&lt;b&gt;Books&lt;/b&gt;&lt;/p&gt;&lt;hr size=&quot;1&quot;&gt;&lt;p style=&quot;margin:0px;margin-left:4px;&quot;&gt;- NumberPages: Int&lt;/p&gt;&lt;p style=&quot;margin:0px;margin-left:4px;&quot;&gt;- NumberChapters : Int&lt;/p&gt;&lt;hr size=&quot;1&quot;&gt;&lt;p style=&quot;margin:0px;margin-left:4px;&quot;&gt;+ addDuration() : Void&amp;nbsp;&lt;/p&gt;" style="verticalAlign=top;align=left;overflow=fill;fontSize=12;fontFamily=Helvetica;html=1;whiteSpace=wrap;" parent="1" vertex="1">
          <mxGeometry x="1150" y="675" width="160" height="100" as="geometry" />
        </mxCell>
        <mxCell id="PpSIHmsDYL9PM3E6bVAJ-5" value="&lt;p style=&quot;margin:0px;margin-top:4px;text-align:center;&quot;&gt;&lt;b&gt;Episode&lt;/b&gt;&lt;/p&gt;&lt;hr size=&quot;1&quot;&gt;&lt;p style=&quot;margin:0px;margin-left:4px;&quot;&gt;- Name : String&lt;/p&gt;&lt;p style=&quot;margin:0px;margin-left:4px;&quot;&gt;- Duration : String&lt;/p&gt;&lt;hr size=&quot;1&quot;&gt;&lt;p style=&quot;margin:0px;margin-left:4px;&quot;&gt;&lt;br&gt;&lt;/p&gt;" style="verticalAlign=top;align=left;overflow=fill;fontSize=12;fontFamily=Helvetica;html=1;whiteSpace=wrap;" parent="1" vertex="1">
          <mxGeometry x="760" y="1040" width="160" height="90" as="geometry" />
        </mxCell>
        <mxCell id="PpSIHmsDYL9PM3E6bVAJ-28" style="edgeStyle=orthogonalEdgeStyle;rounded=0;orthogonalLoop=1;jettySize=auto;html=1;exitX=0.5;exitY=1;exitDx=0;exitDy=0;endArrow=none;endFill=0;entryX=0.5;entryY=0;entryDx=0;entryDy=0;" parent="1" source="PpSIHmsDYL9PM3E6bVAJ-13" target="PpSIHmsDYL9PM3E6bVAJ-5" edge="1">
          <mxGeometry relative="1" as="geometry">
            <mxPoint x="840" y="999.9999999999998" as="sourcePoint" />
            <mxPoint x="880" y="1030" as="targetPoint" />
          </mxGeometry>
        </mxCell>
        <mxCell id="PpSIHmsDYL9PM3E6bVAJ-13" value="&lt;p style=&quot;margin:0px;margin-top:4px;text-align:center;&quot;&gt;&lt;b&gt;Season&lt;/b&gt;&lt;/p&gt;&lt;hr size=&quot;1&quot;&gt;&lt;p style=&quot;margin:0px;margin-left:4px;&quot;&gt;- Name : String&lt;/p&gt;&lt;p style=&quot;margin:0px;margin-left:4px;&quot;&gt;- NumberEpisodes : Int&lt;/p&gt;&lt;hr size=&quot;1&quot;&gt;&lt;p style=&quot;margin:0px;margin-left:4px;&quot;&gt;&lt;br&gt;&lt;/p&gt;" style="verticalAlign=top;align=left;overflow=fill;fontSize=12;fontFamily=Helvetica;html=1;whiteSpace=wrap;" parent="1" vertex="1">
          <mxGeometry x="760" y="860" width="160" height="90" as="geometry" />
        </mxCell>
        <mxCell id="PpSIHmsDYL9PM3E6bVAJ-16" value="&lt;b&gt;1..*&lt;/b&gt;" style="text;html=1;align=center;verticalAlign=middle;resizable=0;points=[];autosize=1;strokeColor=none;fillColor=none;" parent="1" vertex="1">
          <mxGeometry x="800" y="830" width="40" height="30" as="geometry" />
        </mxCell>
        <mxCell id="PpSIHmsDYL9PM3E6bVAJ-23" style="edgeStyle=orthogonalEdgeStyle;rounded=0;orthogonalLoop=1;jettySize=auto;html=1;entryX=0.5;entryY=1;entryDx=0;entryDy=0;endArrow=none;endFill=0;" parent="1" source="PpSIHmsDYL9PM3E6bVAJ-24" edge="1">
          <mxGeometry relative="1" as="geometry">
            <mxPoint x="1230" y="775" as="targetPoint" />
          </mxGeometry>
        </mxCell>
        <mxCell id="PpSIHmsDYL9PM3E6bVAJ-24" value="&lt;p style=&quot;margin:0px;margin-top:4px;text-align:center;&quot;&gt;&lt;b&gt;Chapter&lt;/b&gt;&lt;/p&gt;&lt;hr size=&quot;1&quot;&gt;&lt;p style=&quot;margin:0px;margin-left:4px;&quot;&gt;- Name : String&lt;/p&gt;&lt;p style=&quot;margin:0px;margin-left:4px;&quot;&gt;- NumberChapter&lt;/p&gt;&lt;p style=&quot;margin:0px;margin-left:4px;&quot;&gt;- NumberPages : Int&lt;/p&gt;&lt;hr size=&quot;1&quot;&gt;&lt;p style=&quot;margin:0px;margin-left:4px;&quot;&gt;&lt;br&gt;&lt;/p&gt;" style="verticalAlign=top;align=left;overflow=fill;fontSize=12;fontFamily=Helvetica;html=1;whiteSpace=wrap;" parent="1" vertex="1">
          <mxGeometry x="1150" y="865" width="160" height="90" as="geometry" />
        </mxCell>
        <mxCell id="PpSIHmsDYL9PM3E6bVAJ-25" value="&lt;b&gt;1..*&lt;/b&gt;" style="text;html=1;align=center;verticalAlign=middle;resizable=0;points=[];autosize=1;strokeColor=none;fillColor=none;" parent="1" vertex="1">
          <mxGeometry x="1230" y="835" width="40" height="30" as="geometry" />
        </mxCell>
        <mxCell id="PpSIHmsDYL9PM3E6bVAJ-26" value="&lt;b&gt;1&lt;/b&gt;" style="text;html=1;align=center;verticalAlign=middle;resizable=0;points=[];autosize=1;strokeColor=none;fillColor=none;" parent="1" vertex="1">
          <mxGeometry x="1230" y="775" width="30" height="30" as="geometry" />
        </mxCell>
        <mxCell id="PpSIHmsDYL9PM3E6bVAJ-29" value="&lt;b&gt;1..*&lt;/b&gt;" style="text;html=1;align=center;verticalAlign=middle;resizable=0;points=[];autosize=1;strokeColor=none;fillColor=none;" parent="1" vertex="1">
          <mxGeometry x="840" y="1010" width="40" height="30" as="geometry" />
        </mxCell>
        <mxCell id="PpSIHmsDYL9PM3E6bVAJ-30" value="&lt;b&gt;1&lt;/b&gt;" style="text;html=1;align=center;verticalAlign=middle;resizable=0;points=[];autosize=1;strokeColor=none;fillColor=none;" parent="1" vertex="1">
          <mxGeometry x="960" y="780" width="30" height="30" as="geometry" />
        </mxCell>
        <mxCell id="PpSIHmsDYL9PM3E6bVAJ-31" value="&lt;p style=&quot;margin:0px;margin-top:4px;text-align:center;&quot;&gt;&lt;b&gt;TypeSeries&lt;/b&gt;&lt;/p&gt;&lt;hr size=&quot;1&quot;&gt;&lt;p style=&quot;margin:0px;margin-left:4px;&quot;&gt;-&amp;nbsp; Type: Varchar&lt;/p&gt;&lt;p style=&quot;margin:0px;margin-left:4px;&quot;&gt;&lt;br&gt;&lt;/p&gt;" style="verticalAlign=top;align=left;overflow=fill;fontSize=12;fontFamily=Helvetica;html=1;whiteSpace=wrap;" parent="1" vertex="1">
          <mxGeometry x="950" y="860" width="160" height="55" as="geometry" />
        </mxCell>
        <mxCell id="PpSIHmsDYL9PM3E6bVAJ-33" value="&lt;b&gt;1&lt;br&gt;&lt;/b&gt;" style="text;html=1;align=center;verticalAlign=middle;resizable=0;points=[];autosize=1;strokeColor=none;fillColor=none;" parent="1" vertex="1">
          <mxGeometry x="1030" y="830" width="30" height="30" as="geometry" />
        </mxCell>
        <mxCell id="PpSIHmsDYL9PM3E6bVAJ-34" value="&lt;b&gt;1&lt;br&gt;&lt;/b&gt;" style="text;html=1;align=center;verticalAlign=middle;resizable=0;points=[];autosize=1;strokeColor=none;fillColor=none;" parent="1" vertex="1">
          <mxGeometry x="1030" y="780" width="30" height="30" as="geometry" />
        </mxCell>
        <mxCell id="PpSIHmsDYL9PM3E6bVAJ-36" value="&lt;b&gt;&lt;br&gt;&lt;/b&gt;" style="text;html=1;align=center;verticalAlign=middle;resizable=0;points=[];autosize=1;strokeColor=none;fillColor=none;" parent="1" vertex="1">
          <mxGeometry x="1045" y="840" width="20" height="30" as="geometry" />
        </mxCell>
        <mxCell id="Okd_vAXwTdoC8tYLkcTv-1" value="&lt;b&gt;0..*&lt;/b&gt;" style="text;html=1;align=center;verticalAlign=middle;resizable=0;points=[];autosize=1;strokeColor=none;fillColor=none;" parent="1" vertex="1">
          <mxGeometry x="80" y="-12" width="40" height="30" as="geometry" />
        </mxCell>
        <mxCell id="Okd_vAXwTdoC8tYLkcTv-2" value="&lt;b&gt;0..*&lt;/b&gt;" style="text;html=1;align=center;verticalAlign=middle;resizable=0;points=[];autosize=1;strokeColor=none;fillColor=none;" parent="1" vertex="1">
          <mxGeometry x="2" y="90" width="40" height="30" as="geometry" />
        </mxCell>
        <mxCell id="Okd_vAXwTdoC8tYLkcTv-4" value="&lt;p style=&quot;margin:0px;margin-top:4px;text-align:center;&quot;&gt;&lt;b&gt;To do List&lt;/b&gt;&lt;/p&gt;&lt;hr size=&quot;1&quot;&gt;&lt;p style=&quot;margin:0px;margin-left:4px;&quot;&gt;&lt;br&gt;&lt;/p&gt;&lt;hr size=&quot;1&quot;&gt;&lt;p style=&quot;margin:0px;margin-left:4px;&quot;&gt;&lt;br&gt;&lt;/p&gt;" style="verticalAlign=top;align=left;overflow=fill;fontSize=12;fontFamily=Helvetica;html=1;whiteSpace=wrap;" parent="1" vertex="1">
          <mxGeometry x="345" y="-141" width="160" height="90" as="geometry" />
        </mxCell>
        <mxCell id="Okd_vAXwTdoC8tYLkcTv-6" value="&lt;p style=&quot;margin:0px;margin-top:4px;text-align:center;&quot;&gt;&lt;b&gt;Done List&lt;/b&gt;&lt;/p&gt;&lt;hr size=&quot;1&quot;&gt;&lt;p style=&quot;margin:0px;margin-left:4px;&quot;&gt;&lt;br&gt;&lt;/p&gt;&lt;hr size=&quot;1&quot;&gt;&lt;p style=&quot;margin:0px;margin-left:4px;&quot;&gt;&lt;br&gt;&lt;/p&gt;" style="verticalAlign=top;align=left;overflow=fill;fontSize=12;fontFamily=Helvetica;html=1;whiteSpace=wrap;" parent="1" vertex="1">
          <mxGeometry x="345" y="-284" width="160" height="90" as="geometry" />
        </mxCell>
        <mxCell id="Okd_vAXwTdoC8tYLkcTv-8" style="edgeStyle=orthogonalEdgeStyle;rounded=0;orthogonalLoop=1;jettySize=auto;html=1;entryX=0.001;entryY=0.431;entryDx=0;entryDy=0;entryPerimeter=0;endArrow=none;endFill=0;" parent="1" source="idVs67ghkI3oXP9Q0ESu-8" target="Okd_vAXwTdoC8tYLkcTv-6" edge="1">
          <mxGeometry relative="1" as="geometry">
            <Array as="points">
              <mxPoint x="156" y="-245" />
            </Array>
          </mxGeometry>
        </mxCell>
        <mxCell id="Okd_vAXwTdoC8tYLkcTv-9" value="&lt;b&gt;0..1&lt;/b&gt;" style="text;html=1;align=center;verticalAlign=middle;resizable=0;points=[];autosize=1;strokeColor=none;fillColor=none;" parent="1" vertex="1">
          <mxGeometry x="157" y="10" width="40" height="30" as="geometry" />
        </mxCell>
        <mxCell id="Okd_vAXwTdoC8tYLkcTv-10" value="&lt;b&gt;1&lt;/b&gt;" style="text;html=1;align=center;verticalAlign=middle;resizable=0;points=[];autosize=1;strokeColor=none;fillColor=none;" parent="1" vertex="1">
          <mxGeometry x="315" y="-125" width="30" height="30" as="geometry" />
        </mxCell>
        <mxCell id="Okd_vAXwTdoC8tYLkcTv-11" value="&lt;b&gt;1&lt;/b&gt;" style="text;html=1;align=center;verticalAlign=middle;resizable=0;points=[];autosize=1;strokeColor=none;fillColor=none;" parent="1" vertex="1">
          <mxGeometry x="315" y="-280" width="30" height="30" as="geometry" />
        </mxCell>
        <mxCell id="YDXtCZ6DcLy6HkBjchm_-3" style="edgeStyle=orthogonalEdgeStyle;rounded=0;orthogonalLoop=1;jettySize=auto;html=1;entryX=1.005;entryY=0.113;entryDx=0;entryDy=0;entryPerimeter=0;exitX=0.855;exitY=0.004;exitDx=0;exitDy=0;exitPerimeter=0;" edge="1" parent="1" source="YDXtCZ6DcLy6HkBjchm_-1" target="YDXtCZ6DcLy6HkBjchm_-1">
          <mxGeometry relative="1" as="geometry">
            <mxPoint x="2014.3705512152778" y="4.580254448784672" as="targetPoint" />
            <Array as="points">
              <mxPoint x="2068" y="66" />
              <mxPoint x="2068" y="30" />
              <mxPoint x="2141" y="30" />
              <mxPoint x="2141" y="88" />
            </Array>
          </mxGeometry>
        </mxCell>
        <mxCell id="YDXtCZ6DcLy6HkBjchm_-7" style="edgeStyle=orthogonalEdgeStyle;rounded=0;orthogonalLoop=1;jettySize=auto;html=1;entryX=0.5;entryY=0;entryDx=0;entryDy=0;" edge="1" parent="1" source="YDXtCZ6DcLy6HkBjchm_-1" target="YDXtCZ6DcLy6HkBjchm_-6">
          <mxGeometry relative="1" as="geometry" />
        </mxCell>
        <mxCell id="YDXtCZ6DcLy6HkBjchm_-11" style="edgeStyle=orthogonalEdgeStyle;rounded=0;orthogonalLoop=1;jettySize=auto;html=1;" edge="1" parent="1" source="YDXtCZ6DcLy6HkBjchm_-1" target="YDXtCZ6DcLy6HkBjchm_-10">
          <mxGeometry relative="1" as="geometry" />
        </mxCell>
        <mxCell id="YDXtCZ6DcLy6HkBjchm_-15" style="edgeStyle=orthogonalEdgeStyle;rounded=0;orthogonalLoop=1;jettySize=auto;html=1;entryX=0;entryY=0.5;entryDx=0;entryDy=0;" edge="1" parent="1" source="YDXtCZ6DcLy6HkBjchm_-1" target="YDXtCZ6DcLy6HkBjchm_-14">
          <mxGeometry relative="1" as="geometry" />
        </mxCell>
        <mxCell id="YDXtCZ6DcLy6HkBjchm_-1" value="&lt;p style=&quot;text-align: center; margin: 4px 0px 0px;&quot;&gt;&lt;b&gt;User&lt;/b&gt;&lt;/p&gt;&lt;hr style=&quot;text-align: center;&quot; size=&quot;1&quot;&gt;&lt;p style=&quot;text-align: justify; margin: 0px 0px 0px 4px;&quot;&gt;- Userna&lt;span style=&quot;background-color: initial;&quot;&gt;me : String&lt;/span&gt;&lt;/p&gt;&lt;p style=&quot;text-align: justify; margin: 0px 0px 0px 4px;&quot;&gt;&lt;span style=&quot;background-color: initial;&quot;&gt;- Email: String&lt;/span&gt;&lt;/p&gt;&lt;p style=&quot;text-align: justify; margin: 0px 0px 0px 4px;&quot;&gt;- Phone: Int&lt;/p&gt;&lt;p style=&quot;text-align: justify; margin: 0px 0px 0px 4px;&quot;&gt;- Password: String&lt;/p&gt;&lt;hr style=&quot;text-align: justify;&quot; size=&quot;1&quot;&gt;&lt;p style=&quot;text-align: justify; margin: 0px 0px 0px 4px;&quot;&gt;+ Login() : Void&lt;/p&gt;&lt;p style=&quot;text-align: justify; margin: 0px 0px 0px 4px;&quot;&gt;+ AddFriend(): Void&lt;/p&gt;&lt;p style=&quot;border-color: var(--border-color); text-align: justify; margin: 0px 0px 0px 4px;&quot;&gt;+ CreateAccount() : Void&lt;/p&gt;&lt;p style=&quot;text-align: justify; margin: 0px 0px 0px 4px;&quot;&gt;+ DeleteAccount() : Void&lt;/p&gt;&lt;p style=&quot;text-align: justify; margin: 0px 0px 0px 4px;&quot;&gt;&lt;span style=&quot;background-color: initial;&quot;&gt;+ GetUsers() : Users&lt;/span&gt;&lt;br&gt;&lt;/p&gt;" style="verticalAlign=top;align=left;overflow=fill;fontSize=12;fontFamily=Helvetica;html=1;whiteSpace=wrap;" vertex="1" parent="1">
          <mxGeometry x="1901" y="65" width="210" height="200" as="geometry" />
        </mxCell>
        <mxCell id="YDXtCZ6DcLy6HkBjchm_-4" value="&lt;b&gt;0..*&lt;/b&gt;" style="text;html=1;align=center;verticalAlign=middle;resizable=0;points=[];autosize=1;strokeColor=none;fillColor=none;" vertex="1" parent="1">
          <mxGeometry x="2027" y="33" width="40" height="30" as="geometry" />
        </mxCell>
        <mxCell id="YDXtCZ6DcLy6HkBjchm_-5" value="&lt;b&gt;0..*&lt;/b&gt;" style="text;html=1;align=center;verticalAlign=middle;resizable=0;points=[];autosize=1;strokeColor=none;fillColor=none;" vertex="1" parent="1">
          <mxGeometry x="2113" y="94" width="40" height="30" as="geometry" />
        </mxCell>
        <mxCell id="YDXtCZ6DcLy6HkBjchm_-6" value="&lt;p style=&quot;text-align: center; margin: 4px 0px 0px;&quot;&gt;&lt;b&gt;Wishlist&lt;/b&gt;&lt;/p&gt;&lt;hr style=&quot;text-align: center;&quot; size=&quot;1&quot;&gt;&lt;p style=&quot;text-align: justify; margin: 0px 0px 0px 4px;&quot;&gt;- Id&lt;span style=&quot;background-color: initial;&quot;&gt;: String&lt;/span&gt;&lt;/p&gt;&lt;p style=&quot;text-align: justify; margin: 0px 0px 0px 4px;&quot;&gt;&lt;span style=&quot;background-color: initial;&quot;&gt;- UserId: String&lt;/span&gt;&lt;/p&gt;&lt;p style=&quot;text-align: justify; margin: 0px 0px 0px 4px;&quot;&gt;- EntertainmentId: String&lt;/p&gt;&lt;p style=&quot;text-align: justify; margin: 0px 0px 0px 4px;&quot;&gt;- TypeEntertainment: String&lt;/p&gt;&lt;hr style=&quot;text-align: justify;&quot; size=&quot;1&quot;&gt;&lt;p style=&quot;text-align: justify; margin: 0px 0px 0px 4px;&quot;&gt;+ GetWishlist() : Wishlist&lt;/p&gt;&lt;p style=&quot;text-align: justify; margin: 0px 0px 0px 4px;&quot;&gt;+ RemoveFromWishlist(): Void&lt;/p&gt;&lt;p style=&quot;border-color: var(--border-color); text-align: justify; margin: 0px 0px 0px 4px;&quot;&gt;+ AddToWishlist() : Void&lt;/p&gt;" style="verticalAlign=top;align=left;overflow=fill;fontSize=12;fontFamily=Helvetica;html=1;whiteSpace=wrap;" vertex="1" parent="1">
          <mxGeometry x="1901" y="344" width="210" height="143" as="geometry" />
        </mxCell>
        <mxCell id="YDXtCZ6DcLy6HkBjchm_-8" value="&lt;b&gt;0..1&lt;/b&gt;" style="text;html=1;align=center;verticalAlign=middle;resizable=0;points=[];autosize=1;strokeColor=none;fillColor=none;" vertex="1" parent="1">
          <mxGeometry x="2007" y="265" width="38" height="26" as="geometry" />
        </mxCell>
        <mxCell id="YDXtCZ6DcLy6HkBjchm_-9" value="&lt;b&gt;1&lt;/b&gt;" style="text;html=1;align=center;verticalAlign=middle;resizable=0;points=[];autosize=1;strokeColor=none;fillColor=none;" vertex="1" parent="1">
          <mxGeometry x="2014" y="316" width="25" height="26" as="geometry" />
        </mxCell>
        <mxCell id="YDXtCZ6DcLy6HkBjchm_-10" value="&lt;p style=&quot;text-align: center; margin: 4px 0px 0px;&quot;&gt;&lt;b&gt;Rating&lt;/b&gt;&lt;/p&gt;&lt;hr style=&quot;text-align: center;&quot; size=&quot;1&quot;&gt;&lt;p style=&quot;text-align: justify; margin: 0px 0px 0px 4px;&quot;&gt;- Id&lt;span style=&quot;background-color: initial;&quot;&gt;: String&lt;/span&gt;&lt;/p&gt;&lt;p style=&quot;text-align: justify; margin: 0px 0px 0px 4px;&quot;&gt;&lt;span style=&quot;background-color: initial;&quot;&gt;- UserId: String&lt;/span&gt;&lt;/p&gt;&lt;p style=&quot;text-align: justify; margin: 0px 0px 0px 4px;&quot;&gt;- EntertainmentId: String&lt;/p&gt;&lt;p style=&quot;text-align: justify; margin: 0px 0px 0px 4px;&quot;&gt;- TypeEntertainment&lt;/p&gt;&lt;p style=&quot;text-align: justify; margin: 0px 0px 0px 4px;&quot;&gt;- numRating: float&lt;/p&gt;&lt;hr style=&quot;text-align: justify;&quot; size=&quot;1&quot;&gt;&lt;p style=&quot;text-align: justify; margin: 0px 0px 0px 4px;&quot;&gt;+ GetRating() : Float&lt;/p&gt;&lt;p style=&quot;text-align: justify; margin: 0px 0px 0px 4px;&quot;&gt;+ UpdateRating(): Void&lt;/p&gt;&lt;p style=&quot;border-color: var(--border-color); text-align: justify; margin: 0px 0px 0px 4px;&quot;&gt;+ AddRating() : Void&lt;/p&gt;" style="verticalAlign=top;align=left;overflow=fill;fontSize=12;fontFamily=Helvetica;html=1;whiteSpace=wrap;" vertex="1" parent="1">
          <mxGeometry x="1901" y="-218" width="210" height="167" as="geometry" />
        </mxCell>
        <mxCell id="YDXtCZ6DcLy6HkBjchm_-12" value="&lt;b&gt;0..*&lt;/b&gt;" style="text;html=1;align=center;verticalAlign=middle;resizable=0;points=[];autosize=1;strokeColor=none;fillColor=none;" vertex="1" parent="1">
          <mxGeometry x="1970" y="39" width="36" height="26" as="geometry" />
        </mxCell>
        <mxCell id="YDXtCZ6DcLy6HkBjchm_-13" value="&lt;b&gt;0..1&lt;/b&gt;" style="text;html=1;align=center;verticalAlign=middle;resizable=0;points=[];autosize=1;strokeColor=none;fillColor=none;" vertex="1" parent="1">
          <mxGeometry x="1973" y="-51" width="38" height="26" as="geometry" />
        </mxCell>
        <mxCell id="YDXtCZ6DcLy6HkBjchm_-14" value="&lt;p style=&quot;margin:0px;margin-top:4px;text-align:center;&quot;&gt;&lt;b&gt;Comments&lt;/b&gt;&lt;/p&gt;&lt;hr size=&quot;1&quot;&gt;&lt;p style=&quot;margin:0px;margin-left:4px;&quot;&gt;- Comment : String&lt;/p&gt;&lt;p style=&quot;margin:0px;margin-left:4px;&quot;&gt;- Date : Datetime&lt;/p&gt;&lt;hr size=&quot;1&quot;&gt;&lt;p style=&quot;margin:0px;margin-left:4px;&quot;&gt;+ createComment() : Void&lt;/p&gt;&lt;p style=&quot;margin:0px;margin-left:4px;&quot;&gt;+ updateComment() : Void&lt;/p&gt;&lt;p style=&quot;margin:0px;margin-left:4px;&quot;&gt;+ deleteComment()&amp;nbsp; : Void&lt;/p&gt;&lt;p style=&quot;margin:0px;margin-left:4px;&quot;&gt;+ getComment() : Comments&lt;/p&gt;" style="verticalAlign=top;align=left;overflow=fill;fontSize=12;fontFamily=Helvetica;html=1;whiteSpace=wrap;" vertex="1" parent="1">
          <mxGeometry x="2327" y="94" width="160" height="140" as="geometry" />
        </mxCell>
        <mxCell id="YDXtCZ6DcLy6HkBjchm_-16" value="&lt;b&gt;1&lt;/b&gt;" style="text;html=1;align=center;verticalAlign=middle;resizable=0;points=[];autosize=1;strokeColor=none;fillColor=none;" vertex="1" parent="1">
          <mxGeometry x="2300" y="167" width="25" height="26" as="geometry" />
        </mxCell>
        <mxCell id="YDXtCZ6DcLy6HkBjchm_-17" value="&lt;b&gt;0..*&lt;/b&gt;" style="text;html=1;align=center;verticalAlign=middle;resizable=0;points=[];autosize=1;strokeColor=none;fillColor=none;" vertex="1" parent="1">
          <mxGeometry x="2113" y="167" width="36" height="26" as="geometry" />
        </mxCell>
      </root>
    </mxGraphModel>
  </diagram>
</mxfile>
